<svg width="42" height="35" viewBox="0 0 42 35" fill="none" xmlns="http://www.w3.org/2000/svg">
<path d="M29.2742 2C32.0681 2 34.7628 3.06579 36.7634 4.98633L36.7732 4.99609C38.7596 6.92851 39.8884 9.55354 39.8884 12.3057C39.8884 15.058 38.7598 17.6837 36.7732 19.6162L36.7664 19.6221L23.948 31.9795L23.9412 31.9863L23.9402 31.9854C23.596 32.3139 23.1926 32.5706 22.7537 32.7432C22.3213 32.9132 21.8611 32.999 21.3982 32.999L21.3992 33C21.3956 33 21.392 32.999 21.3884 32.999C21.3848 32.999 21.3813 33 21.3777 33V32.999C20.9151 32.9989 20.4553 32.9131 20.0232 32.7432C19.5842 32.5705 19.1799 32.314 18.8357 31.9854L18.8289 31.9795L6.0105 19.6221L6.00366 19.6162C4.01709 17.6837 2.88843 15.058 2.88843 12.3057C2.8885 9.55354 4.01729 6.92851 6.00366 4.99609L6.01343 4.98633C8.01409 3.06579 10.7087 2 13.5027 2C16.122 2.00005 18.6534 2.93716 20.6082 4.63672L20.9919 4.98633L20.9939 4.98828L21.3884 5.36816L21.783 4.98828L21.7849 4.98633C23.7855 3.06571 26.4802 2.00005 29.2742 2Z" stroke="black" stroke-width="4"/>
</svg>
